<svg width="50" height="50" viewBox="0 0 50 50" fill="none" xmlns="http://www.w3.org/2000/svg">
<rect width="50" height="50" rx="25" fill="#F8F8FF"/>
<path d="M25.0003 13.6365C22.023 13.6365 19.6025 16.057 19.6025 19.0342C19.6025 21.9547 21.8866 24.3183 24.8639 24.4206C24.9548 24.4092 25.0457 24.4092 25.1139 24.4206C25.1366 24.4206 25.148 24.4206 25.1707 24.4206C25.1821 24.4206 25.1821 24.4206 25.1934 24.4206C28.1025 24.3183 30.3866 21.9547 30.398 19.0342C30.398 16.057 27.9775 13.6365 25.0003 13.6365Z" fill="#373962"/>
<path d="M30.7727 27.4433C27.6023 25.3297 22.4318 25.3297 19.2386 27.4433C17.7955 28.4092 17 29.716 17 31.1138C17 32.5115 17.7955 33.8069 19.2273 34.7615C20.8182 35.8297 22.9091 36.3638 25 36.3638C27.0909 36.3638 29.1818 35.8297 30.7727 34.7615C32.2045 33.7956 33 32.5001 33 31.091C32.9886 29.6933 32.2045 28.3979 30.7727 27.4433Z" fill="#373962"/>
</svg>
