<svg width="65" height="64" viewBox="0 0 65 64" fill="none" xmlns="http://www.w3.org/2000/svg">
<path opacity="0.4" d="M55.0006 21.2059C55.0006 20.7659 54.8246 20.3479 54.5167 20.0399L46.3326 11.8559C45.6946 11.2179 44.6386 11.2179 44.0006 11.8559C43.3626 12.4939 43.3626 13.5499 44.0006 14.1879L49.3906 19.5779H13.7506C12.8486 19.5779 12.1006 20.3259 12.1006 21.2279C12.1006 22.1299 12.8486 22.8779 13.7506 22.8779H49.3686L44.0006 28.2459C43.3626 28.8839 43.3626 29.9399 44.0006 30.5779C44.3306 30.9079 44.7486 31.062 45.1667 31.062C45.5847 31.062 46.0026 30.9079 46.3326 30.5779L54.4946 22.416C54.6486 22.262 54.7806 22.064 54.8686 21.844C54.8686 21.822 54.8686 21.7999 54.8906 21.7779C54.9566 21.5799 55.0006 21.4039 55.0006 21.2059Z" fill="#373962"/>
<path d="M53.3506 42.7434H17.7326L23.1006 37.3754C23.7386 36.7374 23.7386 35.6814 23.1006 35.0434C22.4626 34.4054 21.4066 34.4054 20.7686 35.0434L12.6065 43.2053C12.4525 43.3593 12.3206 43.5573 12.2326 43.7773C12.2326 43.7993 12.2326 43.8214 12.2106 43.8434C12.1446 44.0194 12.1006 44.2174 12.1006 44.4154C12.1006 44.8554 12.2765 45.2733 12.5845 45.5813L20.7686 53.7654C21.0986 54.0954 21.5165 54.2493 21.9345 54.2493C22.3525 54.2493 22.7706 54.0954 23.1006 53.7654C23.7386 53.1274 23.7386 52.0713 23.1006 51.4333L17.7106 46.0434H53.3506C54.2526 46.0434 55.0006 45.2954 55.0006 44.3934C55.0006 43.4914 54.2526 42.7434 53.3506 42.7434Z" fill="#373962"/>
</svg>
