<svg width="1000" height="1000" viewBox="0 0 1000 1000" fill="none" xmlns="http://www.w3.org/2000/svg">
<g opacity="0.2">
<path opacity="0.4" d="M937.5 500C972.018 500 1000.4 528.09 996.099 562.339C984.805 652.229 949.23 737.786 892.658 809.547C823.128 897.745 725.929 959.967 616.723 986.185C507.516 1012.4 392.663 1001.09 290.67 954.072C188.677 907.052 105.484 827.064 54.4968 726.995C3.50932 626.927 -12.3031 512.606 9.60735 402.455C31.5178 292.303 89.8751 192.736 175.276 119.797C260.677 46.8579 368.147 4.79475 480.37 0.385485C571.678 -3.20203 661.805 18.3071 741.167 62.0053C771.404 78.6545 777.445 118.13 757.156 146.055C736.867 173.98 697.939 179.63 667.034 164.255C610.975 136.366 548.504 122.805 485.277 125.289C401.11 128.596 320.508 160.143 256.457 214.848C192.406 269.552 148.638 344.228 132.206 426.841C115.773 509.455 127.632 595.195 165.873 670.246C204.113 745.298 266.508 805.289 343.003 840.554C419.497 875.818 505.637 884.302 587.542 864.639C669.447 844.975 742.346 798.309 794.494 732.16C833.667 682.469 859.416 623.958 869.804 562.212C875.531 528.173 902.982 500 937.5 500Z" fill="#373962"/>
<path d="M291.892 500C260.473 500 234.393 474.244 241.086 443.546C249.594 404.528 266.868 367.687 291.895 335.94C328.746 289.195 380.261 256.218 438.141 242.322C496.02 228.426 556.892 234.422 610.948 259.342C665.005 284.262 709.097 326.656 736.12 379.693C763.144 432.729 771.524 493.319 759.912 551.699C748.299 610.079 717.37 662.85 672.107 701.508C626.845 740.165 569.886 762.459 510.408 764.796C470.014 766.383 430.056 758.703 393.488 742.651C364.719 730.023 359.211 693.784 377.679 668.366C396.146 642.948 431.854 638.605 462.279 646.443C476.432 650.089 491.135 651.689 505.941 651.107C539.882 649.773 572.386 637.052 598.216 614.991C624.045 592.931 641.695 562.817 648.322 529.502C654.948 496.187 650.166 461.611 634.745 431.346C619.324 401.081 594.162 376.888 563.315 362.667C532.467 348.446 497.73 345.025 464.701 352.955C431.672 360.884 402.274 379.703 381.245 406.378C372.072 418.014 364.724 430.85 359.355 444.443C347.813 473.665 323.31 500 291.892 500Z" fill="#373962"/>
</g>
</svg>
