<svg width="65" height="64" viewBox="0 0 65 64" fill="none" xmlns="http://www.w3.org/2000/svg">
<path opacity="0.4" d="M58.8831 24.5336V44.4269C58.8831 50.5336 53.9231 55.4669 47.8165 55.4669H16.6165C10.5098 55.4669 5.5498 50.5336 5.5498 44.4269V24.5336H58.8831Z" fill="#373962"/>
<path d="M58.8831 20.6398V24.5331H5.5498V20.6398C5.5498 14.5331 10.5098 9.59979 16.6165 9.59979H47.8165C53.9231 9.59979 58.8831 14.5331 58.8831 20.6398Z" fill="#373962"/>
<path d="M21.5496 46.5336H16.2163C15.123 46.5336 14.2163 45.6269 14.2163 44.5336C14.2163 43.4402 15.123 42.5336 16.2163 42.5336H21.5496C22.643 42.5336 23.5496 43.4402 23.5496 44.5336C23.5496 45.6269 22.643 46.5336 21.5496 46.5336Z" fill="#373962"/>
<path d="M38.883 46.5336H28.2163C27.123 46.5336 26.2163 45.6269 26.2163 44.5336C26.2163 43.4402 27.123 42.5336 28.2163 42.5336H38.883C39.9763 42.5336 40.883 43.4402 40.883 44.5336C40.883 45.6269 39.9763 46.5336 38.883 46.5336Z" fill="#373962"/>
</svg>
