<svg width="65" height="64" viewBox="0 0 65 64" fill="none" xmlns="http://www.w3.org/2000/svg">
<path d="M54.2508 18.8006V24.1246C54.2508 27.6006 52.0508 29.8006 48.5748 29.8006H41.0508V14.4226C41.0508 11.9806 43.0528 9.97861 45.4948 10.0006C47.8928 10.0226 50.0928 10.9906 51.6768 12.5746C53.2608 14.1806 54.2508 16.3806 54.2508 18.8006Z" fill="#373962"/>
<path opacity="0.4" d="M10.2505 21.0004V51.8004C10.2505 53.6264 12.3185 54.6604 13.7705 53.5604L17.5325 50.7444C18.4125 50.0844 19.6445 50.1724 20.4365 50.9644L24.0885 54.6384C24.9465 55.4964 26.3545 55.4964 27.2125 54.6384L30.9085 50.9424C31.6785 50.1724 32.9105 50.0844 33.7685 50.7444L37.5305 53.5604C38.9825 54.6384 41.0505 53.6044 41.0505 51.8004V14.4004C41.0505 11.9804 43.0305 10.0004 45.4505 10.0004H21.2505H19.0505C12.4505 10.0004 10.2505 13.9384 10.2505 18.8004V21.0004Z" fill="#373962"/>
<path d="M32.251 32.5725H25.651C24.749 32.5725 24.001 33.3205 24.001 34.2225C24.001 35.1245 24.749 35.8725 25.651 35.8725H32.251C33.153 35.8725 33.901 35.1245 33.901 34.2225C33.901 33.3205 33.153 32.5725 32.251 32.5725Z" fill="#373962"/>
<path d="M25.651 27.0725H32.251C33.153 27.0725 33.901 26.3245 33.901 25.4225C33.901 24.5205 33.153 23.7725 32.251 23.7725H25.651C24.749 23.7725 24.001 24.5205 24.001 25.4225C24.001 26.3245 24.749 27.0725 25.651 27.0725Z" fill="#373962"/>
<path d="M18.9852 23.2223C17.7532 23.2223 16.7852 24.2123 16.7852 25.4223C16.7852 26.6323 17.7752 27.6223 18.9852 27.6223C20.1952 27.6223 21.1852 26.6323 21.1852 25.4223C21.1852 24.2123 20.1952 23.2223 18.9852 23.2223Z" fill="#373962"/>
<path d="M18.9852 32.0225C17.7532 32.0225 16.7852 33.0125 16.7852 34.2225C16.7852 35.4325 17.7752 36.4225 18.9852 36.4225C20.1952 36.4225 21.1852 35.4325 21.1852 34.2225C21.1852 33.0125 20.1952 32.0225 18.9852 32.0225Z" fill="#373962"/>
</svg>
