<svg width="144" height="38" viewBox="0 0 144 38" fill="none" xmlns="http://www.w3.org/2000/svg">
<path opacity="0.4" d="M33.75 19C34.9926 19 36.0145 20.0112 35.8596 21.2442C35.453 24.4802 34.1723 27.5603 32.1357 30.1437C29.6326 33.3188 26.1334 35.5588 22.202 36.5027C18.2706 37.4465 14.1359 37.0393 10.4641 35.3466C6.79238 33.6539 3.79743 30.7743 1.96188 27.1718C0.126336 23.5694 -0.442913 19.4538 0.345865 15.4884C1.13464 11.5229 3.23551 7.9385 6.30993 5.31269C9.38436 2.68688 13.2533 1.17261 17.2933 1.01388C20.5804 0.884727 23.825 1.65906 26.682 3.23219C27.7705 3.83156 27.988 5.25266 27.2576 6.25798C26.5272 7.2633 25.1258 7.46666 24.0132 6.91317C21.9951 5.90916 19.7461 5.42098 17.47 5.51041C14.44 5.62946 11.5383 6.76516 9.23245 8.73452C6.92663 10.7039 5.35098 13.3922 4.7594 16.3663C4.16782 19.3404 4.59475 22.427 5.97141 25.1289C7.34807 27.8307 9.59428 29.9904 12.3481 31.2599C15.1019 32.5295 18.2029 32.8349 21.1515 32.127C24.1001 31.4191 26.7245 29.7391 28.6018 27.3578C30.012 25.5689 30.939 23.4625 31.3129 21.2396C31.5191 20.0142 32.5074 19 33.75 19Z" fill="#373962"/>
<path d="M10.5079 19C9.37687 19 8.43797 18.0728 8.67894 16.9677C8.98523 15.563 9.60707 14.2367 10.508 13.0938C11.8347 11.411 13.6892 10.2238 15.7729 9.72359C17.8565 9.22335 20.0479 9.43918 21.994 10.3363C23.94 11.2334 25.5273 12.7596 26.5002 14.6689C27.473 16.5782 27.7747 18.7595 27.3567 20.8612C26.9386 22.9628 25.8251 24.8626 24.1957 26.2543C22.5662 27.6459 20.5157 28.4485 18.3745 28.5326C16.9203 28.5898 15.4818 28.3133 14.1654 27.7354C13.1297 27.2808 12.9314 25.9762 13.5963 25.0612C14.2611 24.1461 15.5466 23.9898 16.6419 24.2719C17.1514 24.4032 17.6807 24.4608 18.2137 24.4399C19.4356 24.3918 20.6057 23.9339 21.5356 23.1397C22.4654 22.3455 23.1008 21.2614 23.3394 20.0621C23.578 18.8627 23.4058 17.618 22.8506 16.5285C22.2955 15.4389 21.3897 14.568 20.2792 14.056C19.1687 13.5441 17.9181 13.4209 16.7291 13.7064C15.54 13.9918 14.4817 14.6693 13.7247 15.6296C13.3944 16.0485 13.1299 16.5106 12.9366 17C12.5211 18.0519 11.639 19 10.5079 19Z" fill="#373962"/>
<path d="M51.7 28.5H47.2V8.4H51.7V16.38H62.2V8.4H66.7V28.5H62.2V20.43H51.7V28.5ZM81.6541 28.5H69.0241V8.4H81.0841C85.1941 8.4 87.4141 10.14 87.4141 13.29C87.4141 15.78 86.0941 17.58 82.7341 17.82V18.09C86.4541 18.36 88.2541 20.22 88.2541 22.92C88.2541 26.34 86.1541 28.5 81.6541 28.5ZM73.5241 12.45V16.38H80.5741C82.2241 16.38 82.9141 15.81 82.9141 14.43C82.9141 13.05 82.1941 12.45 80.5141 12.45H73.5241ZM73.5241 20.1V24.45H81.1141C82.9441 24.45 83.6941 23.88 83.6941 22.26C83.6941 20.67 82.9441 20.1 81.1141 20.1H73.5241ZM94.5348 28.8C91.2948 28.8 89.3448 27.3 89.3448 24.78C89.3448 22.56 90.9948 21.18 94.2048 20.85L100.655 20.19V19.62C100.655 17.67 99.7848 17.13 97.3848 17.13C95.1048 17.13 94.1748 17.73 94.1748 19.44V19.56H89.6448V19.47C89.6448 15.75 92.7648 13.17 97.7148 13.17C102.725 13.17 105.095 15.75 105.095 19.68V28.5H100.895V25.05H100.655C99.9648 27.39 97.8648 28.8 94.5348 28.8ZM93.8748 24.48C93.8748 25.29 94.5048 25.62 95.8248 25.62C98.8848 25.62 100.535 24.9 100.655 22.77L95.4348 23.37C94.3548 23.46 93.8748 23.76 93.8748 24.48ZM111.876 28.5H107.376V13.47H111.546V18.09H111.816C112.206 15.57 114.006 13.17 117.936 13.17C122.046 13.17 123.996 15.81 123.996 19.14V28.5H119.496V20.64C119.496 18.24 118.506 17.22 115.746 17.22C112.896 17.22 111.876 18.36 111.876 20.91V28.5ZM130.772 28.5H126.272V8.4H130.772V19.05H134.192L138.032 13.47H143.372L137.882 20.73L143.282 28.5H137.972L134.222 23.07H130.772V28.5Z" fill="#373962"/>
</svg>
