<svg width="21" height="20" viewBox="0 0 21 20" fill="none" xmlns="http://www.w3.org/2000/svg">
<path opacity="0.4" d="M18.0402 4.82018L12.2802 0.790182C10.7102 -0.309818 8.30023 -0.249818 6.79023 0.920182L1.78023 4.83018C0.780234 5.61018 -0.00976562 7.21018 -0.00976562 8.47018V15.3702C-0.00976562 17.9202 2.06023 20.0002 4.61023 20.0002H15.3902C17.9402 20.0002 20.0102 17.9302 20.0102 15.3802V8.60018C20.0102 7.25018 19.1402 5.59018 18.0402 4.82018Z" fill="#373962"/>
<path d="M10 16.7502C9.59 16.7502 9.25 16.4102 9.25 16.0002V13.0002C9.25 12.5902 9.59 12.2502 10 12.2502C10.41 12.2502 10.75 12.5902 10.75 13.0002V16.0002C10.75 16.4102 10.41 16.7502 10 16.7502Z" fill="#373962"/>
</svg>
