<svg width="450" height="60" viewBox="0 0 450 60" fill="none" xmlns="http://www.w3.org/2000/svg">
<path opacity="0.4" d="M155.75 30C157.821 30 159.524 31.6854 159.266 33.7403C158.588 39.1337 156.454 44.2672 153.06 48.5728C148.888 53.8647 143.056 57.598 136.503 59.1711C129.951 60.7442 123.06 60.0655 116.94 57.2443C110.821 54.4231 105.829 49.6238 102.77 43.6197C99.7106 37.6156 98.7618 30.7564 100.076 24.1473C101.391 17.5382 104.893 11.5642 110.017 7.18782C115.141 2.81147 121.589 0.287685 128.322 0.0231291C133.801 -0.192122 139.208 1.09843 143.97 3.72032C145.784 4.71927 146.147 7.08777 144.929 8.7633C143.712 10.4388 141.376 10.7778 139.522 9.85528C136.159 8.18193 132.41 7.3683 128.617 7.51735C123.567 7.71576 118.73 9.60861 114.887 12.8909C111.044 16.1731 108.418 20.6537 107.432 25.6105C106.446 30.5673 107.158 35.7117 109.452 40.2148C111.747 44.7179 115.49 48.3173 120.08 50.4332C124.67 52.5491 129.838 53.0581 134.753 51.8783C139.667 50.6985 144.041 47.8985 147.17 43.9296C149.52 40.9482 151.065 37.4375 151.688 33.7327C152.032 31.6904 153.679 30 155.75 30Z" fill="#373962"/>
<path d="M117.014 29.9993C115.129 29.9993 113.564 28.4539 113.965 26.6121C114.476 24.271 115.512 22.0605 117.014 20.1557C119.225 17.351 122.316 15.3724 125.789 14.5386C129.261 13.7049 132.914 14.0646 136.157 15.5598C139.4 17.055 142.046 19.5987 143.667 22.7809C145.289 25.963 145.792 29.5984 145.095 33.1012C144.398 36.6041 142.542 39.7703 139.827 42.0898C137.111 44.4092 133.693 45.7468 130.125 45.887C127.701 45.9823 125.303 45.5215 123.109 44.5584C121.383 43.8007 121.053 41.6264 122.161 40.1013C123.269 38.5762 125.411 38.3156 127.237 38.7859C128.086 39.0046 128.968 39.1006 129.857 39.0657C131.893 38.9857 133.843 38.2224 135.393 36.8988C136.943 35.5752 138.002 33.7683 138.399 31.7694C138.797 29.7705 138.51 27.696 137.585 25.8801C136.66 24.0641 135.15 22.6126 133.299 21.7593C131.448 20.9061 129.364 20.7008 127.382 21.1766C125.4 21.6524 123.637 22.7815 122.375 24.382C121.824 25.0802 121.384 25.8503 121.061 26.6659C120.369 28.4192 118.899 29.9993 117.014 29.9993Z" fill="#373962"/>
<path d="M183.62 45.5H176.42V13.34H183.62V26.108H200.42V13.34H207.62V45.5H200.42V32.588H183.62V45.5ZM231.547 45.5H211.339V13.34H230.635C237.211 13.34 240.763 16.124 240.763 21.164C240.763 25.148 238.651 28.028 233.275 28.412V28.844C239.227 29.276 242.107 32.252 242.107 36.572C242.107 42.044 238.747 45.5 231.547 45.5ZM218.539 19.82V26.108H229.819C232.459 26.108 233.562 25.196 233.562 22.988C233.562 20.78 232.411 19.82 229.723 19.82H218.539ZM218.539 32.06V39.02H230.683C233.611 39.02 234.811 38.108 234.811 35.516C234.811 32.972 233.611 32.06 230.683 32.06H218.539ZM252.156 45.98C246.972 45.98 243.852 43.58 243.852 39.548C243.852 35.996 246.492 33.788 251.628 33.26L261.948 32.204V31.292C261.948 28.172 260.556 27.308 256.716 27.308C253.068 27.308 251.58 28.268 251.58 31.004V31.196H244.332V31.052C244.332 25.1 249.324 20.972 257.244 20.972C265.26 20.972 269.052 25.1 269.052 31.388V45.5H262.332V39.98H261.948C260.844 43.724 257.484 45.98 252.156 45.98ZM251.1 39.068C251.1 40.364 252.108 40.892 254.22 40.892C259.116 40.892 261.756 39.74 261.948 36.332L253.596 37.292C251.868 37.436 251.1 37.916 251.1 39.068ZM279.901 45.5H272.701V21.452H279.373V28.844H279.805C280.429 24.812 283.309 20.972 289.597 20.972C296.173 20.972 299.293 25.196 299.293 30.524V45.5H292.093V32.924C292.093 29.084 290.509 27.452 286.093 27.452C281.533 27.452 279.901 29.276 279.901 33.356V45.5ZM310.136 45.5H302.936V13.34H310.136V30.38H315.608L321.752 21.452H330.296L321.512 33.068L330.152 45.5H321.656L315.656 36.812H310.136V45.5Z" fill="#373962"/>
</svg>
