<svg width="65" height="64" viewBox="0 0 65 64" fill="none" xmlns="http://www.w3.org/2000/svg">
<path opacity="0.4" d="M43.557 5.33221H20.9437C13.5837 5.33221 10.917 7.99888 10.917 15.4922V48.5055C10.917 55.9989 13.5837 58.6655 20.9437 58.6655H43.5303C50.917 58.6655 53.5837 55.9989 53.5837 48.5055V15.4922C53.5837 7.99888 50.917 5.33221 43.557 5.33221Z" fill="#373962"/>
<path d="M37.5837 16.665H26.917C25.8237 16.665 24.917 15.7584 24.917 14.665C24.917 13.5717 25.8237 12.665 26.917 12.665H37.5837C38.677 12.665 39.5837 13.5717 39.5837 14.665C39.5837 15.7584 38.677 16.665 37.5837 16.665Z" fill="#373962"/>
<path d="M32.2502 51.4655C34.8275 51.4655 36.9168 49.3762 36.9168 46.7989C36.9168 44.2215 34.8275 42.1322 32.2502 42.1322C29.6728 42.1322 27.5835 44.2215 27.5835 46.7989C27.5835 49.3762 29.6728 51.4655 32.2502 51.4655Z" fill="#373962"/>
</svg>
